<?xml version="1.0" encoding="UTF-8" standalone="no"?>
<!DOCTYPE svg PUBLIC "-//W3C//DTD SVG 1.1//EN"
 "http://www.w3.org/Graphics/SVG/1.1/DTD/svg11.dtd">
<!-- Generated by graphviz version 2.43.0 (0)
 -->
<!-- Title: take Pages: 1 -->
<svg width="556pt" height="124pt"
 viewBox="0.00 0.00 556.26 123.95" xmlns="http://www.w3.org/2000/svg" xmlns:xlink="http://www.w3.org/1999/xlink">
<g id="graph0" class="graph" transform="scale(1 1) rotate(0) translate(4 119.95)">
<title>take</title>
<polygon fill="white" stroke="transparent" points="-4,4 -4,-119.95 552.26,-119.95 552.26,4 -4,4"/>
<!-- prog -->
<g id="node1" class="node">
<title>prog</title>
<ellipse fill="none" stroke="black" cx="405.67" cy="-57.52" rx="32.49" ry="18"/>
<text text-anchor="middle" x="405.67" y="-53.82" font-family="Times,serif" font-size="14.00">prog</text>
</g>
<!-- :build -->
<g id="node2" class="node">
<title>:build</title>
<ellipse fill="none" stroke="black" cx="511.22" cy="-57.52" rx="37.09" ry="18"/>
<text text-anchor="middle" x="511.22" y="-53.82" font-family="Times,serif" font-size="14.00">:build</text>
</g>
<!-- prog&#45;&gt;:build -->
<g id="edge1" class="edge">
<title>prog&#45;&gt;:build</title>
<path fill="none" stroke="black" d="M438.3,-57.52C446.42,-57.52 455.33,-57.52 464.02,-57.52"/>
<polygon fill="black" stroke="black" points="464.07,-61.02 474.07,-57.52 464.07,-54.02 464.07,-61.02"/>
</g>
<!-- main.o -->
<g id="node3" class="node">
<title>main.o</title>
<ellipse fill="none" stroke="black" cx="294.28" cy="-84.52" rx="42.49" ry="18"/>
<text text-anchor="middle" x="294.28" y="-80.82" font-family="Times,serif" font-size="14.00">main.o</text>
</g>
<!-- main.o&#45;&gt;prog -->
<g id="edge2" class="edge">
<title>main.o&#45;&gt;prog</title>
<path fill="none" stroke="black" d="M331.1,-75.68C342.17,-72.94 354.41,-69.92 365.68,-67.14"/>
<polygon fill="black" stroke="black" points="366.83,-70.46 375.7,-64.67 365.15,-63.67 366.83,-70.46"/>
</g>
<!-- main.d -->
<g id="node4" class="node">
<title>main.d</title>
<ellipse fill="none" stroke="black" cx="43.55" cy="-95.52" rx="42.49" ry="18"/>
<text text-anchor="middle" x="43.55" y="-91.82" font-family="Times,serif" font-size="14.00">main.d</text>
</g>
<!-- main.d&#45;&gt;main.o -->
<g id="edge3" class="edge">
<title>main.d&#45;&gt;main.o</title>
<path fill="none" stroke="black" d="M80.68,-104.46C93.93,-107.32 109.11,-110.11 123.09,-111.52 163.9,-115.63 174.93,-118.33 215.38,-111.52 228.41,-109.32 242.18,-105.2 254.45,-100.82"/>
<polygon fill="black" stroke="black" points="255.78,-104.06 263.93,-97.29 253.34,-97.5 255.78,-104.06"/>
</g>
<!-- main.di -->
<g id="node5" class="node">
<title>main.di</title>
<ellipse fill="none" stroke="black" cx="169.24" cy="-84.52" rx="45.49" ry="18"/>
<text text-anchor="middle" x="169.24" y="-80.82" font-family="Times,serif" font-size="14.00">main.di</text>
</g>
<!-- main.d&#45;&gt;main.di -->
<g id="edge5" class="edge">
<title>main.d&#45;&gt;main.di</title>
<path fill="none" stroke="black" d="M85.05,-91.91C94.46,-91.08 104.62,-90.17 114.51,-89.29"/>
<polygon fill="black" stroke="black" points="115.01,-92.76 124.66,-88.39 114.39,-85.79 115.01,-92.76"/>
</g>
<!-- main.di&#45;&gt;main.o -->
<g id="edge4" class="edge">
<title>main.di&#45;&gt;main.o</title>
<path fill="none" stroke="black" d="M215.01,-84.52C223.7,-84.52 232.87,-84.52 241.76,-84.52"/>
<polygon fill="black" stroke="black" points="242.02,-88.02 252.02,-84.52 242.02,-81.02 242.02,-88.02"/>
</g>
<!-- math.di -->
<g id="node6" class="node">
<title>math.di</title>
<ellipse fill="none" stroke="black" cx="169.24" cy="-30.52" rx="46.29" ry="18"/>
<text text-anchor="middle" x="169.24" y="-26.82" font-family="Times,serif" font-size="14.00">math.di</text>
</g>
<!-- math.di&#45;&gt;main.o -->
<g id="edge6" class="edge">
<title>math.di&#45;&gt;main.o</title>
<path fill="none" stroke="black" d="M200.65,-43.86C216.99,-51.03 237.29,-59.94 254.72,-67.59"/>
<polygon fill="black" stroke="black" points="253.5,-70.88 264.06,-71.69 256.31,-64.47 253.5,-70.88"/>
</g>
<!-- math.o -->
<g id="node8" class="node">
<title>math.o</title>
<ellipse fill="none" stroke="black" cx="294.28" cy="-30.52" rx="42.79" ry="18"/>
<text text-anchor="middle" x="294.28" y="-26.82" font-family="Times,serif" font-size="14.00">math.o</text>
</g>
<!-- math.di&#45;&gt;math.o -->
<g id="edge10" class="edge">
<title>math.di&#45;&gt;math.o</title>
<path fill="none" stroke="black" d="M215.7,-30.52C223.98,-30.52 232.67,-30.52 241.12,-30.52"/>
<polygon fill="black" stroke="black" points="241.26,-34.02 251.26,-30.52 241.26,-27.02 241.26,-34.02"/>
</g>
<!-- math.d -->
<g id="node7" class="node">
<title>math.d</title>
<ellipse fill="none" stroke="black" cx="43.55" cy="-18.52" rx="43.59" ry="18"/>
<text text-anchor="middle" x="43.55" y="-14.82" font-family="Times,serif" font-size="14.00">math.d</text>
</g>
<!-- math.d&#45;&gt;math.di -->
<g id="edge7" class="edge">
<title>math.d&#45;&gt;math.di</title>
<path fill="none" stroke="black" d="M86.08,-22.55C95.05,-23.42 104.66,-24.35 114.03,-25.26"/>
<polygon fill="black" stroke="black" points="113.77,-28.75 124.06,-26.23 114.45,-21.78 113.77,-28.75"/>
</g>
<!-- math.d&#45;&gt;math.o -->
<g id="edge9" class="edge">
<title>math.d&#45;&gt;math.o</title>
<path fill="none" stroke="black" d="M81.75,-9.84C116.51,-3.01 169.73,4.17 215.38,-3.52 228.41,-5.71 242.18,-9.83 254.45,-14.21"/>
<polygon fill="black" stroke="black" points="253.34,-17.53 263.93,-17.74 255.78,-10.97 253.34,-17.53"/>
</g>
<!-- math.o&#45;&gt;prog -->
<g id="edge8" class="edge">
<title>math.o&#45;&gt;prog</title>
<path fill="none" stroke="black" d="M331.71,-39.51C342.65,-42.21 354.7,-45.18 365.8,-47.92"/>
<polygon fill="black" stroke="black" points="365.11,-51.36 375.66,-50.36 366.79,-44.56 365.11,-51.36"/>
</g>
</g>
</svg>
