<?xml version="1.0" encoding="UTF-8" standalone="no"?>
<!DOCTYPE svg PUBLIC "-//W3C//DTD SVG 1.1//EN"
 "http://www.w3.org/Graphics/SVG/1.1/DTD/svg11.dtd">
<!-- Generated by graphviz version 2.43.0 (0)
 -->
<!-- Title: take Pages: 1 -->
<svg width="390pt" height="152pt"
 viewBox="0.00 0.00 390.28 152.00" xmlns="http://www.w3.org/2000/svg" xmlns:xlink="http://www.w3.org/1999/xlink">
<g id="graph0" class="graph" transform="scale(1 1) rotate(0) translate(4 148)">
<title>take</title>
<polygon fill="white" stroke="transparent" points="-4,4 -4,-148 386.28,-148 386.28,4 -4,4"/>
<!-- prog -->
<g id="node1" class="node">
<title>prog</title>
<ellipse fill="none" stroke="black" cx="239.69" cy="-99" rx="32.49" ry="18"/>
<text text-anchor="middle" x="239.69" y="-95.3" font-family="Times,serif" font-size="14.00">prog</text>
</g>
<!-- :build -->
<g id="node2" class="node">
<title>:build</title>
<ellipse fill="none" stroke="black" cx="345.23" cy="-99" rx="37.09" ry="18"/>
<text text-anchor="middle" x="345.23" y="-95.3" font-family="Times,serif" font-size="14.00">:build</text>
</g>
<!-- prog&#45;&gt;:build -->
<g id="edge1" class="edge">
<title>prog&#45;&gt;:build</title>
<path fill="none" stroke="black" d="M272.31,-99C280.44,-99 289.34,-99 298.03,-99"/>
<polygon fill="black" stroke="black" points="298.08,-102.5 308.08,-99 298.08,-95.5 298.08,-102.5"/>
</g>
<!-- bar.o -->
<g id="node3" class="node">
<title>bar.o</title>
<ellipse fill="none" stroke="black" cx="137.39" cy="-126" rx="33.6" ry="18"/>
<text text-anchor="middle" x="137.39" y="-122.3" font-family="Times,serif" font-size="14.00">bar.o</text>
</g>
<!-- bar.o&#45;&gt;prog -->
<g id="edge2" class="edge">
<title>bar.o&#45;&gt;prog</title>
<path fill="none" stroke="black" d="M167.94,-118.05C178.01,-115.33 189.42,-112.26 200.1,-109.39"/>
<polygon fill="black" stroke="black" points="201.29,-112.69 210.04,-106.71 199.47,-105.93 201.29,-112.69"/>
</g>
<!-- bar.c -->
<g id="node4" class="node">
<title>bar.c</title>
<ellipse fill="none" stroke="black" cx="33.8" cy="-126" rx="33.29" ry="18"/>
<text text-anchor="middle" x="33.8" y="-122.3" font-family="Times,serif" font-size="14.00">bar.c</text>
</g>
<!-- bar.c&#45;&gt;bar.o -->
<g id="edge3" class="edge">
<title>bar.c&#45;&gt;bar.o</title>
<path fill="none" stroke="black" d="M67.22,-126C75.57,-126 84.68,-126 93.47,-126"/>
<polygon fill="black" stroke="black" points="93.58,-129.5 103.58,-126 93.58,-122.5 93.58,-129.5"/>
</g>
<!-- foo.o -->
<g id="node5" class="node">
<title>foo.o</title>
<ellipse fill="none" stroke="black" cx="137.39" cy="-72" rx="33.29" ry="18"/>
<text text-anchor="middle" x="137.39" y="-68.3" font-family="Times,serif" font-size="14.00">foo.o</text>
</g>
<!-- foo.o&#45;&gt;prog -->
<g id="edge4" class="edge">
<title>foo.o&#45;&gt;prog</title>
<path fill="none" stroke="black" d="M167.4,-79.81C177.68,-82.58 189.4,-85.73 200.33,-88.68"/>
<polygon fill="black" stroke="black" points="199.52,-92.08 210.09,-91.3 201.34,-85.32 199.52,-92.08"/>
</g>
<!-- foo.c -->
<g id="node6" class="node">
<title>foo.c</title>
<ellipse fill="none" stroke="black" cx="33.8" cy="-72" rx="32.49" ry="18"/>
<text text-anchor="middle" x="33.8" y="-68.3" font-family="Times,serif" font-size="14.00">foo.c</text>
</g>
<!-- foo.c&#45;&gt;foo.o -->
<g id="edge5" class="edge">
<title>foo.c&#45;&gt;foo.o</title>
<path fill="none" stroke="black" d="M66.39,-72C75.1,-72 84.71,-72 93.93,-72"/>
<polygon fill="black" stroke="black" points="94.12,-75.5 104.12,-72 94.12,-68.5 94.12,-75.5"/>
</g>
<!-- foo.h -->
<g id="node7" class="node">
<title>foo.h</title>
<ellipse fill="none" stroke="black" cx="33.8" cy="-18" rx="33.6" ry="18"/>
<text text-anchor="middle" x="33.8" y="-14.3" font-family="Times,serif" font-size="14.00">foo.h</text>
</g>
<!-- foo.h&#45;&gt;foo.o -->
<g id="edge6" class="edge">
<title>foo.h&#45;&gt;foo.o</title>
<path fill="none" stroke="black" d="M58.36,-30.52C71.95,-37.75 89.24,-46.94 104.08,-54.83"/>
<polygon fill="black" stroke="black" points="102.48,-57.94 112.96,-59.54 105.77,-51.76 102.48,-57.94"/>
</g>
</g>
</svg>
