<?xml version="1.0" encoding="UTF-8" standalone="no"?>
<!DOCTYPE svg PUBLIC "-//W3C//DTD SVG 1.1//EN"
 "http://www.w3.org/Graphics/SVG/1.1/DTD/svg11.dtd">
<!-- Generated by graphviz version 2.43.0 (0)
 -->
<!-- Title: take Pages: 1 -->
<svg width="375pt" height="44pt"
 viewBox="0.00 0.00 375.38 44.00" xmlns="http://www.w3.org/2000/svg" xmlns:xlink="http://www.w3.org/1999/xlink">
<g id="graph0" class="graph" transform="scale(1 1) rotate(0) translate(4 40)">
<title>take</title>
<polygon fill="white" stroke="transparent" points="-4,4 -4,-40 371.38,-40 371.38,4 -4,4"/>
<!-- foo -->
<g id="node1" class="node">
<title>foo</title>
<ellipse fill="none" stroke="black" cx="230.29" cy="-18" rx="27" ry="18"/>
<text text-anchor="middle" x="230.29" y="-14.3" font-family="Times,serif" font-size="14.00">foo</text>
</g>
<!-- :build -->
<g id="node2" class="node">
<title>:build</title>
<ellipse fill="none" stroke="black" cx="330.34" cy="-18" rx="37.09" ry="18"/>
<text text-anchor="middle" x="330.34" y="-14.3" font-family="Times,serif" font-size="14.00">:build</text>
</g>
<!-- foo&#45;&gt;:build -->
<g id="edge1" class="edge">
<title>foo&#45;&gt;:build</title>
<path fill="none" stroke="black" d="M257.31,-18C265.22,-18 274.16,-18 282.99,-18"/>
<polygon fill="black" stroke="black" points="283.23,-21.5 293.23,-18 283.23,-14.5 283.23,-21.5"/>
</g>
<!-- foo.o -->
<g id="node3" class="node">
<title>foo.o</title>
<ellipse fill="none" stroke="black" cx="134.14" cy="-18" rx="33.29" ry="18"/>
<text text-anchor="middle" x="134.14" y="-14.3" font-family="Times,serif" font-size="14.00">foo.o</text>
</g>
<!-- foo.o&#45;&gt;foo -->
<g id="edge2" class="edge">
<title>foo.o&#45;&gt;foo</title>
<path fill="none" stroke="black" d="M167.54,-18C175.69,-18 184.5,-18 192.84,-18"/>
<polygon fill="black" stroke="black" points="193.06,-21.5 203.06,-18 193.06,-14.5 193.06,-21.5"/>
</g>
<!-- foo.c -->
<g id="node4" class="node">
<title>foo.c</title>
<ellipse fill="none" stroke="black" cx="32.5" cy="-18" rx="32.49" ry="18"/>
<text text-anchor="middle" x="32.5" y="-14.3" font-family="Times,serif" font-size="14.00">foo.c</text>
</g>
<!-- foo.c&#45;&gt;foo.o -->
<g id="edge3" class="edge">
<title>foo.c&#45;&gt;foo.o</title>
<path fill="none" stroke="black" d="M65.03,-18C73.13,-18 81.99,-18 90.56,-18"/>
<polygon fill="black" stroke="black" points="90.79,-21.5 100.79,-18 90.79,-14.5 90.79,-21.5"/>
</g>
</g>
</svg>
