<?xml version="1.0" encoding="UTF-8" standalone="no"?>
<!DOCTYPE svg PUBLIC "-//W3C//DTD SVG 1.1//EN"
 "http://www.w3.org/Graphics/SVG/1.1/DTD/svg11.dtd">
<!-- Generated by graphviz version 2.43.0 (0)
 -->
<!-- Title: take Pages: 1 -->
<svg width="428pt" height="476pt"
 viewBox="0.00 0.00 428.37 476.00" xmlns="http://www.w3.org/2000/svg" xmlns:xlink="http://www.w3.org/1999/xlink">
<g id="graph0" class="graph" transform="scale(1 1) rotate(0) translate(4 472)">
<title>take</title>
<polygon fill="white" stroke="transparent" points="-4,4 -4,-472 424.37,-472 424.37,4 -4,4"/>
<!-- build -->
<g id="node1" class="node">
<title>build</title>
<ellipse fill="none" stroke="black" cx="275.83" cy="-234" rx="34.39" ry="18"/>
<text text-anchor="middle" x="275.83" y="-230.3" font-family="Times,serif" font-size="14.00">build</text>
</g>
<!-- :build -->
<g id="node2" class="node">
<title>:build</title>
<ellipse fill="none" stroke="black" cx="383.32" cy="-234" rx="37.09" ry="18"/>
<text text-anchor="middle" x="383.32" y="-230.3" font-family="Times,serif" font-size="14.00">:build</text>
</g>
<!-- build&#45;&gt;:build -->
<g id="edge1" class="edge">
<title>build&#45;&gt;:build</title>
<path fill="none" stroke="black" d="M310.5,-234C318.56,-234 327.3,-234 335.83,-234"/>
<polygon fill="black" stroke="black" points="336.06,-237.5 346.06,-234 336.06,-230.5 336.06,-237.5"/>
</g>
<!-- foo&#45;linux&#45;amd64 -->
<g id="node3" class="node">
<title>foo&#45;linux&#45;amd64</title>
<ellipse fill="none" stroke="black" cx="102.69" cy="-450" rx="85.29" ry="18"/>
<text text-anchor="middle" x="102.69" y="-446.3" font-family="Times,serif" font-size="14.00">foo&#45;linux&#45;amd64</text>
</g>
<!-- foo&#45;linux&#45;amd64&#45;&gt;build -->
<g id="edge2" class="edge">
<title>foo&#45;linux&#45;amd64&#45;&gt;build</title>
<path fill="none" stroke="black" d="M175.17,-440.41C186.23,-436.41 196.81,-430.81 205.38,-423 252.1,-380.42 267.47,-303.68 272.47,-262.3"/>
<polygon fill="black" stroke="black" points="275.97,-262.42 273.57,-252.1 269.02,-261.66 275.97,-262.42"/>
</g>
<!-- foo&#45;linux&#45;386 -->
<g id="node4" class="node">
<title>foo&#45;linux&#45;386</title>
<ellipse fill="none" stroke="black" cx="102.69" cy="-396" rx="70.69" ry="18"/>
<text text-anchor="middle" x="102.69" y="-392.3" font-family="Times,serif" font-size="14.00">foo&#45;linux&#45;386</text>
</g>
<!-- foo&#45;linux&#45;386&#45;&gt;build -->
<g id="edge3" class="edge">
<title>foo&#45;linux&#45;386&#45;&gt;build</title>
<path fill="none" stroke="black" d="M166.45,-388.02C180.33,-384 194.21,-377.99 205.38,-369 239.7,-341.39 258.8,-292.3 267.94,-261.54"/>
<polygon fill="black" stroke="black" points="271.32,-262.44 270.66,-251.87 264.58,-260.54 271.32,-262.44"/>
</g>
<!-- foo&#45;linux&#45;arm -->
<g id="node5" class="node">
<title>foo&#45;linux&#45;arm</title>
<ellipse fill="none" stroke="black" cx="102.69" cy="-342" rx="71.49" ry="18"/>
<text text-anchor="middle" x="102.69" y="-338.3" font-family="Times,serif" font-size="14.00">foo&#45;linux&#45;arm</text>
</g>
<!-- foo&#45;linux&#45;arm&#45;&gt;build -->
<g id="edge4" class="edge">
<title>foo&#45;linux&#45;arm&#45;&gt;build</title>
<path fill="none" stroke="black" d="M163.45,-332.5C177.89,-328.53 192.77,-322.92 205.38,-315 227.62,-301.03 246.53,-277.69 258.98,-259.64"/>
<polygon fill="black" stroke="black" points="261.92,-261.53 264.55,-251.27 256.1,-257.65 261.92,-261.53"/>
</g>
<!-- foo&#45;linux&#45;arm64 -->
<g id="node6" class="node">
<title>foo&#45;linux&#45;arm64</title>
<ellipse fill="none" stroke="black" cx="102.69" cy="-288" rx="83.39" ry="18"/>
<text text-anchor="middle" x="102.69" y="-284.3" font-family="Times,serif" font-size="14.00">foo&#45;linux&#45;arm64</text>
</g>
<!-- foo&#45;linux&#45;arm64&#45;&gt;build -->
<g id="edge5" class="edge">
<title>foo&#45;linux&#45;arm64&#45;&gt;build</title>
<path fill="none" stroke="black" d="M158.64,-274.61C173.88,-270.57 190.36,-265.9 205.38,-261 216.4,-257.41 228.21,-253.02 238.91,-248.84"/>
<polygon fill="black" stroke="black" points="240.36,-252.03 248.37,-245.09 237.78,-245.52 240.36,-252.03"/>
</g>
<!-- foo&#45;darwin&#45;amd64 -->
<g id="node7" class="node">
<title>foo&#45;darwin&#45;amd64</title>
<ellipse fill="none" stroke="black" cx="102.69" cy="-234" rx="94.78" ry="18"/>
<text text-anchor="middle" x="102.69" y="-230.3" font-family="Times,serif" font-size="14.00">foo&#45;darwin&#45;amd64</text>
</g>
<!-- foo&#45;darwin&#45;amd64&#45;&gt;build -->
<g id="edge6" class="edge">
<title>foo&#45;darwin&#45;amd64&#45;&gt;build</title>
<path fill="none" stroke="black" d="M197.77,-234C209.3,-234 220.62,-234 230.89,-234"/>
<polygon fill="black" stroke="black" points="231.16,-237.5 241.16,-234 231.16,-230.5 231.16,-237.5"/>
</g>
<!-- foo&#45;darwin&#45;arm64 -->
<g id="node8" class="node">
<title>foo&#45;darwin&#45;arm64</title>
<ellipse fill="none" stroke="black" cx="102.69" cy="-180" rx="92.88" ry="18"/>
<text text-anchor="middle" x="102.69" y="-176.3" font-family="Times,serif" font-size="14.00">foo&#45;darwin&#45;arm64</text>
</g>
<!-- foo&#45;darwin&#45;arm64&#45;&gt;build -->
<g id="edge7" class="edge">
<title>foo&#45;darwin&#45;arm64&#45;&gt;build</title>
<path fill="none" stroke="black" d="M161.03,-194.03C175.59,-197.92 191.14,-202.36 205.38,-207 216.4,-210.59 228.21,-214.98 238.91,-219.16"/>
<polygon fill="black" stroke="black" points="237.78,-222.48 248.37,-222.91 240.36,-215.97 237.78,-222.48"/>
</g>
<!-- foo&#45;openbsd&#45;amd64 -->
<g id="node9" class="node">
<title>foo&#45;openbsd&#45;amd64</title>
<ellipse fill="none" stroke="black" cx="102.69" cy="-126" rx="101.28" ry="18"/>
<text text-anchor="middle" x="102.69" y="-122.3" font-family="Times,serif" font-size="14.00">foo&#45;openbsd&#45;amd64</text>
</g>
<!-- foo&#45;openbsd&#45;amd64&#45;&gt;build -->
<g id="edge8" class="edge">
<title>foo&#45;openbsd&#45;amd64&#45;&gt;build</title>
<path fill="none" stroke="black" d="M174.39,-138.82C185.23,-142.44 195.95,-147.07 205.38,-153 227.62,-166.97 246.53,-190.31 258.98,-208.36"/>
<polygon fill="black" stroke="black" points="256.1,-210.35 264.55,-216.73 261.92,-206.47 256.1,-210.35"/>
</g>
<!-- foo&#45;freebsd&#45;amd64 -->
<g id="node10" class="node">
<title>foo&#45;freebsd&#45;amd64</title>
<ellipse fill="none" stroke="black" cx="102.69" cy="-72" rx="97.48" ry="18"/>
<text text-anchor="middle" x="102.69" y="-68.3" font-family="Times,serif" font-size="14.00">foo&#45;freebsd&#45;amd64</text>
</g>
<!-- foo&#45;freebsd&#45;amd64&#45;&gt;build -->
<g id="edge9" class="edge">
<title>foo&#45;freebsd&#45;amd64&#45;&gt;build</title>
<path fill="none" stroke="black" d="M177.54,-83.65C187.56,-87.43 197.2,-92.42 205.38,-99 239.7,-126.61 258.8,-175.7 267.94,-206.46"/>
<polygon fill="black" stroke="black" points="264.58,-207.46 270.66,-216.13 271.32,-205.56 264.58,-207.46"/>
</g>
<!-- foo&#45;windows&#45;amd64 -->
<g id="node11" class="node">
<title>foo&#45;windows&#45;amd64</title>
<ellipse fill="none" stroke="black" cx="102.69" cy="-18" rx="102.88" ry="18"/>
<text text-anchor="middle" x="102.69" y="-14.3" font-family="Times,serif" font-size="14.00">foo&#45;windows&#45;amd64</text>
</g>
<!-- foo&#45;windows&#45;amd64&#45;&gt;build -->
<g id="edge10" class="edge">
<title>foo&#45;windows&#45;amd64&#45;&gt;build</title>
<path fill="none" stroke="black" d="M180.87,-29.81C189.84,-33.59 198.29,-38.54 205.38,-45 252.1,-87.58 267.47,-164.32 272.47,-205.7"/>
<polygon fill="black" stroke="black" points="269.02,-206.34 273.57,-215.9 275.97,-205.58 269.02,-206.34"/>
</g>
</g>
</svg>
