<?xml version="1.0" encoding="UTF-8" standalone="no"?>
<!DOCTYPE svg PUBLIC "-//W3C//DTD SVG 1.1//EN"
 "http://www.w3.org/Graphics/SVG/1.1/DTD/svg11.dtd">
<!-- Generated by graphviz version 2.43.0 (0)
 -->
<!-- Title: take Pages: 1 -->
<svg width="2499pt" height="1502pt"
 viewBox="0.00 0.00 2498.51 1502.00" xmlns="http://www.w3.org/2000/svg" xmlns:xlink="http://www.w3.org/1999/xlink">
<g id="graph0" class="graph" transform="scale(1 1) rotate(0) translate(4 1498)">
<title>take</title>
<polygon fill="white" stroke="transparent" points="-4,4 -4,-1498 2494.51,-1498 2494.51,4 -4,4"/>
<!-- synth -->
<g id="node1" class="node">
<title>synth</title>
<ellipse fill="none" stroke="black" cx="2344.02" cy="-808" rx="36.29" ry="18"/>
<text text-anchor="middle" x="2344.02" y="-804.3" font-family="Times,serif" font-size="14.00">synth</text>
</g>
<!-- :build -->
<g id="node2" class="node">
<title>:build</title>
<ellipse fill="none" stroke="black" cx="2453.46" cy="-808" rx="37.09" ry="18"/>
<text text-anchor="middle" x="2453.46" y="-804.3" font-family="Times,serif" font-size="14.00">:build</text>
</g>
<!-- synth&#45;&gt;:build -->
<g id="edge1" class="edge">
<title>synth&#45;&gt;:build</title>
<path fill="none" stroke="black" d="M2380.5,-808C2388.67,-808 2397.48,-808 2406.03,-808"/>
<polygon fill="black" stroke="black" points="2406.29,-811.5 2416.29,-808 2406.29,-804.5 2406.29,-811.5"/>
</g>
<!-- Soc.bit -->
<g id="node3" class="node">
<title>Soc.bit</title>
<ellipse fill="none" stroke="black" cx="2228.73" cy="-808" rx="42.79" ry="18"/>
<text text-anchor="middle" x="2228.73" y="-804.3" font-family="Times,serif" font-size="14.00">Soc.bit</text>
</g>
<!-- Soc.bit&#45;&gt;synth -->
<g id="edge2" class="edge">
<title>Soc.bit&#45;&gt;synth</title>
<path fill="none" stroke="black" d="M2271.91,-808C2280.23,-808 2289,-808 2297.42,-808"/>
<polygon fill="black" stroke="black" points="2297.48,-811.5 2307.48,-808 2297.48,-804.5 2297.48,-811.5"/>
</g>
<!-- Soc_out.config -->
<g id="node4" class="node">
<title>Soc_out.config</title>
<ellipse fill="none" stroke="black" cx="2072.49" cy="-808" rx="77.19" ry="18"/>
<text text-anchor="middle" x="2072.49" y="-804.3" font-family="Times,serif" font-size="14.00">Soc_out.config</text>
</g>
<!-- Soc_out.config&#45;&gt;Soc.bit -->
<g id="edge3" class="edge">
<title>Soc_out.config&#45;&gt;Soc.bit</title>
<path fill="none" stroke="black" d="M2150.16,-808C2158.77,-808 2167.39,-808 2175.58,-808"/>
<polygon fill="black" stroke="black" points="2175.71,-811.5 2185.71,-808 2175.71,-804.5 2175.71,-811.5"/>
</g>
<!-- tech/ulx3s/ulx3s_v20.lpf -->
<g id="node5" class="node">
<title>tech/ulx3s/ulx3s_v20.lpf</title>
<ellipse fill="none" stroke="black" cx="1836.31" cy="-835" rx="122.68" ry="18"/>
<text text-anchor="middle" x="1836.31" y="-831.3" font-family="Times,serif" font-size="14.00">tech/ulx3s/ulx3s_v20.lpf</text>
</g>
<!-- tech/ulx3s/ulx3s_v20.lpf&#45;&gt;Soc_out.config -->
<g id="edge4" class="edge">
<title>tech/ulx3s/ulx3s_v20.lpf&#45;&gt;Soc_out.config</title>
<path fill="none" stroke="black" d="M1933.23,-823.94C1953.04,-821.66 1973.68,-819.28 1992.79,-817.07"/>
<polygon fill="black" stroke="black" points="1993.4,-820.53 2002.94,-815.9 1992.6,-813.57 1993.4,-820.53"/>
</g>
<!-- Soc.json -->
<g id="node6" class="node">
<title>Soc.json</title>
<ellipse fill="none" stroke="black" cx="1836.31" cy="-781" rx="49.29" ry="18"/>
<text text-anchor="middle" x="1836.31" y="-777.3" font-family="Times,serif" font-size="14.00">Soc.json</text>
</g>
<!-- Soc.json&#45;&gt;Soc_out.config -->
<g id="edge5" class="edge">
<title>Soc.json&#45;&gt;Soc_out.config</title>
<path fill="none" stroke="black" d="M1883.57,-786.33C1914.64,-789.92 1956.37,-794.73 1992.61,-798.91"/>
<polygon fill="black" stroke="black" points="1992.34,-802.4 2002.67,-800.07 1993.14,-795.44 1992.34,-802.4"/>
</g>
<!-- tech/ulx3s/top.v -->
<g id="node7" class="node">
<title>tech/ulx3s/top.v</title>
<ellipse fill="none" stroke="black" cx="1573.48" cy="-862" rx="85.29" ry="18"/>
<text text-anchor="middle" x="1573.48" y="-858.3" font-family="Times,serif" font-size="14.00">tech/ulx3s/top.v</text>
</g>
<!-- tech/ulx3s/top.v&#45;&gt;Soc.json -->
<g id="edge6" class="edge">
<title>tech/ulx3s/top.v&#45;&gt;Soc.json</title>
<path fill="none" stroke="black" d="M1636.59,-849.86C1650.41,-846.04 1664.73,-841.15 1677.47,-835 1695.48,-826.3 1695.29,-816.35 1713.47,-808 1733.95,-798.59 1757.9,-792.37 1779.12,-788.3"/>
<polygon fill="black" stroke="black" points="1779.76,-791.74 1788.98,-786.52 1778.51,-784.85 1779.76,-791.74"/>
</g>
<!-- tech/ulx3s/pll.v -->
<g id="node8" class="node">
<title>tech/ulx3s/pll.v</title>
<ellipse fill="none" stroke="black" cx="1573.48" cy="-808" rx="81.49" ry="18"/>
<text text-anchor="middle" x="1573.48" y="-804.3" font-family="Times,serif" font-size="14.00">tech/ulx3s/pll.v</text>
</g>
<!-- tech/ulx3s/pll.v&#45;&gt;Soc.json -->
<g id="edge7" class="edge">
<title>tech/ulx3s/pll.v&#45;&gt;Soc.json</title>
<path fill="none" stroke="black" d="M1647.48,-800.44C1688.98,-796.15 1740.18,-790.85 1778.63,-786.87"/>
<polygon fill="black" stroke="black" points="1779.03,-790.34 1788.62,-785.83 1778.31,-783.38 1779.03,-790.34"/>
</g>
<!-- generated/Soc -->
<g id="node9" class="node">
<title>generated/Soc</title>
<ellipse fill="none" stroke="black" cx="1573.48" cy="-754" rx="77.19" ry="18"/>
<text text-anchor="middle" x="1573.48" y="-750.3" font-family="Times,serif" font-size="14.00">generated/Soc</text>
</g>
<!-- generated/Soc&#45;&gt;Soc.json -->
<g id="edge8" class="edge">
<title>generated/Soc&#45;&gt;Soc.json</title>
<path fill="none" stroke="black" d="M1644.37,-761.24C1686.44,-765.59 1739.29,-771.06 1778.72,-775.14"/>
<polygon fill="black" stroke="black" points="1778.38,-778.63 1788.69,-776.17 1779.11,-771.66 1778.38,-778.63"/>
</g>
<!-- generated/Soc.fir -->
<g id="node10" class="node">
<title>generated/Soc.fir</title>
<ellipse fill="none" stroke="black" cx="1332.74" cy="-828" rx="90.98" ry="18"/>
<text text-anchor="middle" x="1332.74" y="-824.3" font-family="Times,serif" font-size="14.00">generated/Soc.fir</text>
</g>
<!-- generated/Soc.fir&#45;&gt;generated/Soc -->
<g id="edge9" class="edge">
<title>generated/Soc.fir&#45;&gt;generated/Soc</title>
<path fill="none" stroke="black" d="M1376.87,-812.12C1403.41,-802.58 1438.23,-790.49 1469.49,-781 1482.38,-777.08 1496.29,-773.21 1509.58,-769.67"/>
<polygon fill="black" stroke="black" points="1510.82,-772.96 1519.6,-767.03 1509.04,-766.19 1510.82,-772.96"/>
</g>
<!-- src/main/scala/Core.scala -->
<g id="node11" class="node">
<title>src/main/scala/Core.scala</title>
<ellipse fill="none" stroke="black" cx="1002.32" cy="-1476" rx="128.08" ry="18"/>
<text text-anchor="middle" x="1002.32" y="-1472.3" font-family="Times,serif" font-size="14.00">src/main/scala/Core.scala</text>
</g>
<!-- src/main/scala/Core.scala&#45;&gt;generated/Soc.fir -->
<g id="edge10" class="edge">
<title>src/main/scala/Core.scala&#45;&gt;generated/Soc.fir</title>
<path fill="none" stroke="black" d="M1125.71,-1480.88C1151.57,-1476.29 1176.8,-1466.79 1196,-1449 1285.11,-1366.42 1321.35,-966.56 1329.75,-856.24"/>
<polygon fill="black" stroke="black" points="1333.24,-856.44 1330.5,-846.2 1326.26,-855.92 1333.24,-856.44"/>
</g>
<!-- src/main/scala/Soc.scala -->
<g id="node12" class="node">
<title>src/main/scala/Soc.scala</title>
<ellipse fill="none" stroke="black" cx="1002.32" cy="-1422" rx="122.68" ry="18"/>
<text text-anchor="middle" x="1002.32" y="-1418.3" font-family="Times,serif" font-size="14.00">src/main/scala/Soc.scala</text>
</g>
<!-- src/main/scala/Soc.scala&#45;&gt;generated/Soc.fir -->
<g id="edge11" class="edge">
<title>src/main/scala/Soc.scala&#45;&gt;generated/Soc.fir</title>
<path fill="none" stroke="black" d="M1119.19,-1427.62C1147.2,-1423.49 1175.07,-1414.02 1196,-1395 1277.86,-1320.63 1318.87,-960.11 1329.13,-856.12"/>
<polygon fill="black" stroke="black" points="1332.62,-856.36 1330.1,-846.07 1325.66,-855.69 1332.62,-856.36"/>
</g>
<!-- src/main/scala/bus/Bus.scala -->
<g id="node13" class="node">
<title>src/main/scala/bus/Bus.scala</title>
<ellipse fill="none" stroke="black" cx="1002.32" cy="-1368" rx="143.77" ry="18"/>
<text text-anchor="middle" x="1002.32" y="-1364.3" font-family="Times,serif" font-size="14.00">src/main/scala/bus/Bus.scala</text>
</g>
<!-- src/main/scala/bus/Bus.scala&#45;&gt;generated/Soc.fir -->
<g id="edge12" class="edge">
<title>src/main/scala/bus/Bus.scala&#45;&gt;generated/Soc.fir</title>
<path fill="none" stroke="black" d="M1145.98,-1367.44C1164.37,-1362.06 1181.73,-1353.67 1196,-1341 1270.65,-1274.78 1316.16,-953.29 1328.4,-855.97"/>
<polygon fill="black" stroke="black" points="1331.88,-856.35 1329.63,-846 1324.93,-855.49 1331.88,-856.35"/>
</g>
<!-- src/main/scala/core/Alu.scala -->
<g id="node14" class="node">
<title>src/main/scala/core/Alu.scala</title>
<ellipse fill="none" stroke="black" cx="1002.32" cy="-1314" rx="144.07" ry="18"/>
<text text-anchor="middle" x="1002.32" y="-1310.3" font-family="Times,serif" font-size="14.00">src/main/scala/core/Alu.scala</text>
</g>
<!-- src/main/scala/core/Alu.scala&#45;&gt;generated/Soc.fir -->
<g id="edge13" class="edge">
<title>src/main/scala/core/Alu.scala&#45;&gt;generated/Soc.fir</title>
<path fill="none" stroke="black" d="M1146.63,-1312.78C1164.7,-1307.44 1181.8,-1299.24 1196,-1287 1263.38,-1228.94 1312.98,-947.08 1327.43,-856.26"/>
<polygon fill="black" stroke="black" points="1330.92,-856.58 1329.02,-846.16 1324.01,-855.5 1330.92,-856.58"/>
</g>
<!-- src/main/scala/core/Branch.scala -->
<g id="node15" class="node">
<title>src/main/scala/core/Branch.scala</title>
<ellipse fill="none" stroke="black" cx="1002.32" cy="-1260" rx="162.47" ry="18"/>
<text text-anchor="middle" x="1002.32" y="-1256.3" font-family="Times,serif" font-size="14.00">src/main/scala/core/Branch.scala</text>
</g>
<!-- src/main/scala/core/Branch.scala&#45;&gt;generated/Soc.fir -->
<g id="edge14" class="edge">
<title>src/main/scala/core/Branch.scala&#45;&gt;generated/Soc.fir</title>
<path fill="none" stroke="black" d="M1157.84,-1254.48C1171.68,-1249.37 1184.7,-1242.39 1196,-1233 1313.97,-1134.98 1329.92,-930.99 1331.7,-856.24"/>
<polygon fill="black" stroke="black" points="1335.2,-856.23 1331.87,-846.17 1328.2,-856.11 1335.2,-856.23"/>
</g>
<!-- src/main/scala/core/Control.scala -->
<g id="node16" class="node">
<title>src/main/scala/core/Control.scala</title>
<ellipse fill="none" stroke="black" cx="1002.32" cy="-1206" rx="163.57" ry="18"/>
<text text-anchor="middle" x="1002.32" y="-1202.3" font-family="Times,serif" font-size="14.00">src/main/scala/core/Control.scala</text>
</g>
<!-- src/main/scala/core/Control.scala&#45;&gt;generated/Soc.fir -->
<g id="edge15" class="edge">
<title>src/main/scala/core/Control.scala&#45;&gt;generated/Soc.fir</title>
<path fill="none" stroke="black" d="M1157.41,-1199.95C1171.33,-1194.94 1184.49,-1188.13 1196,-1179 1299.78,-1096.7 1324.32,-924.65 1330.04,-856.59"/>
<polygon fill="black" stroke="black" points="1333.56,-856.46 1330.83,-846.23 1326.58,-855.93 1333.56,-856.46"/>
</g>
<!-- src/main/scala/core/Core.scala -->
<g id="node17" class="node">
<title>src/main/scala/core/Core.scala</title>
<ellipse fill="none" stroke="black" cx="1002.32" cy="-1152" rx="151.37" ry="18"/>
<text text-anchor="middle" x="1002.32" y="-1148.3" font-family="Times,serif" font-size="14.00">src/main/scala/core/Core.scala</text>
</g>
<!-- src/main/scala/core/Core.scala&#45;&gt;generated/Soc.fir -->
<g id="edge16" class="edge">
<title>src/main/scala/core/Core.scala&#45;&gt;generated/Soc.fir</title>
<path fill="none" stroke="black" d="M1149.54,-1147.6C1166.24,-1142.56 1182.19,-1135.3 1196,-1125 1286.26,-1057.71 1318.17,-916.11 1327.94,-855.97"/>
<polygon fill="black" stroke="black" points="1331.41,-856.47 1329.47,-846.05 1324.49,-855.4 1331.41,-856.47"/>
</g>
<!-- src/main/scala/core/Csr.scala -->
<g id="node18" class="node">
<title>src/main/scala/core/Csr.scala</title>
<ellipse fill="none" stroke="black" cx="1002.32" cy="-1098" rx="144.07" ry="18"/>
<text text-anchor="middle" x="1002.32" y="-1094.3" font-family="Times,serif" font-size="14.00">src/main/scala/core/Csr.scala</text>
</g>
<!-- src/main/scala/core/Csr.scala&#45;&gt;generated/Soc.fir -->
<g id="edge17" class="edge">
<title>src/main/scala/core/Csr.scala&#45;&gt;generated/Soc.fir</title>
<path fill="none" stroke="black" d="M1143.3,-1094.01C1162.07,-1089.12 1180.26,-1081.78 1196,-1071 1272.66,-1018.52 1310.74,-907.81 1324.95,-855.94"/>
<polygon fill="black" stroke="black" points="1328.38,-856.65 1327.55,-846.09 1321.61,-854.86 1328.38,-856.65"/>
</g>
<!-- src/main/scala/core/Execute.scala -->
<g id="node19" class="node">
<title>src/main/scala/core/Execute.scala</title>
<ellipse fill="none" stroke="black" cx="1002.32" cy="-1044" rx="167.07" ry="18"/>
<text text-anchor="middle" x="1002.32" y="-1040.3" font-family="Times,serif" font-size="14.00">src/main/scala/core/Execute.scala</text>
</g>
<!-- src/main/scala/core/Execute.scala&#45;&gt;generated/Soc.fir -->
<g id="edge18" class="edge">
<title>src/main/scala/core/Execute.scala&#45;&gt;generated/Soc.fir</title>
<path fill="none" stroke="black" d="M1151.73,-1035.81C1167.32,-1031.32 1182.42,-1025.21 1196,-1017 1259.54,-978.6 1301.81,-897.94 1320.6,-855.48"/>
<polygon fill="black" stroke="black" points="1323.92,-856.61 1324.66,-846.04 1317.49,-853.84 1323.92,-856.61"/>
</g>
<!-- src/main/scala/core/Fetch.scala -->
<g id="node20" class="node">
<title>src/main/scala/core/Fetch.scala</title>
<ellipse fill="none" stroke="black" cx="1002.32" cy="-990" rx="155.17" ry="18"/>
<text text-anchor="middle" x="1002.32" y="-986.3" font-family="Times,serif" font-size="14.00">src/main/scala/core/Fetch.scala</text>
</g>
<!-- src/main/scala/core/Fetch.scala&#45;&gt;generated/Soc.fir -->
<g id="edge19" class="edge">
<title>src/main/scala/core/Fetch.scala&#45;&gt;generated/Soc.fir</title>
<path fill="none" stroke="black" d="M1140.85,-981.83C1159.98,-977.55 1178.91,-971.49 1196,-963 1246.89,-937.73 1290.34,-886.02 1313.59,-854.44"/>
<polygon fill="black" stroke="black" points="1316.59,-856.27 1319.61,-846.11 1310.92,-852.17 1316.59,-856.27"/>
</g>
<!-- src/main/scala/core/Instructions.scala -->
<g id="node21" class="node">
<title>src/main/scala/core/Instructions.scala</title>
<ellipse fill="none" stroke="black" cx="1002.32" cy="-936" rx="185.47" ry="18"/>
<text text-anchor="middle" x="1002.32" y="-932.3" font-family="Times,serif" font-size="14.00">src/main/scala/core/Instructions.scala</text>
</g>
<!-- src/main/scala/core/Instructions.scala&#45;&gt;generated/Soc.fir -->
<g id="edge20" class="edge">
<title>src/main/scala/core/Instructions.scala&#45;&gt;generated/Soc.fir</title>
<path fill="none" stroke="black" d="M1139.45,-923.87C1158.73,-920.15 1178.08,-915.31 1196,-909 1234.38,-895.49 1273.82,-870.46 1300.24,-851.79"/>
<polygon fill="black" stroke="black" points="1302.59,-854.4 1308.67,-845.73 1298.51,-848.72 1302.59,-854.4"/>
</g>
<!-- src/main/scala/core/RegFile.scala -->
<g id="node22" class="node">
<title>src/main/scala/core/RegFile.scala</title>
<ellipse fill="none" stroke="black" cx="1002.32" cy="-882" rx="165.17" ry="18"/>
<text text-anchor="middle" x="1002.32" y="-878.3" font-family="Times,serif" font-size="14.00">src/main/scala/core/RegFile.scala</text>
</g>
<!-- src/main/scala/core/RegFile.scala&#45;&gt;generated/Soc.fir -->
<g id="edge21" class="edge">
<title>src/main/scala/core/RegFile.scala&#45;&gt;generated/Soc.fir</title>
<path fill="none" stroke="black" d="M1109.24,-868.27C1137.49,-864.3 1167.94,-859.75 1196,-855 1216.77,-851.48 1239.23,-847.21 1259.79,-843.11"/>
<polygon fill="black" stroke="black" points="1260.6,-846.52 1269.71,-841.11 1259.22,-839.65 1260.6,-846.52"/>
</g>
<!-- src/main/scala/core/Writeback.scala -->
<g id="node23" class="node">
<title>src/main/scala/core/Writeback.scala</title>
<ellipse fill="none" stroke="black" cx="1002.32" cy="-828" rx="176.27" ry="18"/>
<text text-anchor="middle" x="1002.32" y="-824.3" font-family="Times,serif" font-size="14.00">src/main/scala/core/Writeback.scala</text>
</g>
<!-- src/main/scala/core/Writeback.scala&#45;&gt;generated/Soc.fir -->
<g id="edge22" class="edge">
<title>src/main/scala/core/Writeback.scala&#45;&gt;generated/Soc.fir</title>
<path fill="none" stroke="black" d="M1178.59,-828C1196.56,-828 1214.36,-828 1231.11,-828"/>
<polygon fill="black" stroke="black" points="1231.4,-831.5 1241.4,-828 1231.4,-824.5 1231.4,-831.5"/>
</g>
<!-- src/main/scala/lib/fifo/Fifo.scala -->
<g id="node24" class="node">
<title>src/main/scala/lib/fifo/Fifo.scala</title>
<ellipse fill="none" stroke="black" cx="1002.32" cy="-774" rx="156.77" ry="18"/>
<text text-anchor="middle" x="1002.32" y="-770.3" font-family="Times,serif" font-size="14.00">src/main/scala/lib/fifo/Fifo.scala</text>
</g>
<!-- src/main/scala/lib/fifo/Fifo.scala&#45;&gt;generated/Soc.fir -->
<g id="edge23" class="edge">
<title>src/main/scala/lib/fifo/Fifo.scala&#45;&gt;generated/Soc.fir</title>
<path fill="none" stroke="black" d="M1106.99,-787.42C1135.86,-791.46 1167.2,-796.12 1196,-801 1216.77,-804.52 1239.23,-808.79 1259.79,-812.89"/>
<polygon fill="black" stroke="black" points="1259.22,-816.35 1269.71,-814.89 1260.6,-809.48 1259.22,-816.35"/>
</g>
<!-- src/main/scala/sys/gpio/Gpio.scala -->
<g id="node25" class="node">
<title>src/main/scala/sys/gpio/Gpio.scala</title>
<ellipse fill="none" stroke="black" cx="1002.32" cy="-720" rx="168.97" ry="18"/>
<text text-anchor="middle" x="1002.32" y="-716.3" font-family="Times,serif" font-size="14.00">src/main/scala/sys/gpio/Gpio.scala</text>
</g>
<!-- src/main/scala/sys/gpio/Gpio.scala&#45;&gt;generated/Soc.fir -->
<g id="edge24" class="edge">
<title>src/main/scala/sys/gpio/Gpio.scala&#45;&gt;generated/Soc.fir</title>
<path fill="none" stroke="black" d="M1134.57,-731.22C1155.46,-735.04 1176.57,-740.16 1196,-747 1234.38,-760.51 1273.82,-785.54 1300.24,-804.21"/>
<polygon fill="black" stroke="black" points="1298.51,-807.28 1308.67,-810.27 1302.59,-801.6 1298.51,-807.28"/>
</g>
<!-- src/main/scala/sys/ram/Ram.scala -->
<g id="node26" class="node">
<title>src/main/scala/sys/ram/Ram.scala</title>
<ellipse fill="none" stroke="black" cx="1002.32" cy="-666" rx="167.07" ry="18"/>
<text text-anchor="middle" x="1002.32" y="-662.3" font-family="Times,serif" font-size="14.00">src/main/scala/sys/ram/Ram.scala</text>
</g>
<!-- src/main/scala/sys/ram/Ram.scala&#45;&gt;generated/Soc.fir -->
<g id="edge25" class="edge">
<title>src/main/scala/sys/ram/Ram.scala&#45;&gt;generated/Soc.fir</title>
<path fill="none" stroke="black" d="M1145.67,-675.29C1163.15,-679.49 1180.35,-685.22 1196,-693 1246.89,-718.27 1290.34,-769.98 1313.59,-801.56"/>
<polygon fill="black" stroke="black" points="1310.92,-803.83 1319.61,-809.89 1316.59,-799.73 1310.92,-803.83"/>
</g>
<!-- src/main/scala/sys/timer/Timer.scala -->
<g id="node27" class="node">
<title>src/main/scala/sys/timer/Timer.scala</title>
<ellipse fill="none" stroke="black" cx="1002.32" cy="-612" rx="178.97" ry="18"/>
<text text-anchor="middle" x="1002.32" y="-608.3" font-family="Times,serif" font-size="14.00">src/main/scala/sys/timer/Timer.scala</text>
</g>
<!-- src/main/scala/sys/timer/Timer.scala&#45;&gt;generated/Soc.fir -->
<g id="edge26" class="edge">
<title>src/main/scala/sys/timer/Timer.scala&#45;&gt;generated/Soc.fir</title>
<path fill="none" stroke="black" d="M1155.7,-621.37C1169.88,-625.74 1183.57,-631.49 1196,-639 1259.54,-677.4 1301.81,-758.06 1320.6,-800.52"/>
<polygon fill="black" stroke="black" points="1317.49,-802.16 1324.66,-809.96 1323.92,-799.39 1317.49,-802.16"/>
</g>
<!-- src/main/scala/sys/uart/Baud.scala -->
<g id="node28" class="node">
<title>src/main/scala/sys/uart/Baud.scala</title>
<ellipse fill="none" stroke="black" cx="1002.32" cy="-558" rx="170.87" ry="18"/>
<text text-anchor="middle" x="1002.32" y="-554.3" font-family="Times,serif" font-size="14.00">src/main/scala/sys/uart/Baud.scala</text>
</g>
<!-- src/main/scala/sys/uart/Baud.scala&#45;&gt;generated/Soc.fir -->
<g id="edge27" class="edge">
<title>src/main/scala/sys/uart/Baud.scala&#45;&gt;generated/Soc.fir</title>
<path fill="none" stroke="black" d="M1156.63,-565.93C1170.62,-570.58 1184.02,-576.8 1196,-585 1272.66,-637.48 1310.74,-748.19 1324.95,-800.06"/>
<polygon fill="black" stroke="black" points="1321.61,-801.14 1327.55,-809.91 1328.38,-799.35 1321.61,-801.14"/>
</g>
<!-- src/main/scala/sys/uart/Rx.scala -->
<g id="node29" class="node">
<title>src/main/scala/sys/uart/Rx.scala</title>
<ellipse fill="none" stroke="black" cx="1002.32" cy="-504" rx="159.47" ry="18"/>
<text text-anchor="middle" x="1002.32" y="-500.3" font-family="Times,serif" font-size="14.00">src/main/scala/sys/uart/Rx.scala</text>
</g>
<!-- src/main/scala/sys/uart/Rx.scala&#45;&gt;generated/Soc.fir -->
<g id="edge28" class="edge">
<title>src/main/scala/sys/uart/Rx.scala&#45;&gt;generated/Soc.fir</title>
<path fill="none" stroke="black" d="M1153.94,-509.79C1169.04,-514.74 1183.41,-521.61 1196,-531 1286.26,-598.29 1318.17,-739.89 1327.94,-800.03"/>
<polygon fill="black" stroke="black" points="1324.49,-800.6 1329.47,-809.95 1331.41,-799.53 1324.49,-800.6"/>
</g>
<!-- src/main/scala/sys/uart/Tx.scala -->
<g id="node30" class="node">
<title>src/main/scala/sys/uart/Tx.scala</title>
<ellipse fill="none" stroke="black" cx="1002.32" cy="-450" rx="157.87" ry="18"/>
<text text-anchor="middle" x="1002.32" y="-446.3" font-family="Times,serif" font-size="14.00">src/main/scala/sys/uart/Tx.scala</text>
</g>
<!-- src/main/scala/sys/uart/Tx.scala&#45;&gt;generated/Soc.fir -->
<g id="edge29" class="edge">
<title>src/main/scala/sys/uart/Tx.scala&#45;&gt;generated/Soc.fir</title>
<path fill="none" stroke="black" d="M1154.52,-455.04C1169.5,-460.13 1183.7,-467.24 1196,-477 1299.78,-559.3 1324.32,-731.35 1330.04,-799.41"/>
<polygon fill="black" stroke="black" points="1326.58,-800.07 1330.83,-809.77 1333.56,-799.54 1326.58,-800.07"/>
</g>
<!-- src/main/scala/sys/uart/Uart.scala -->
<g id="node31" class="node">
<title>src/main/scala/sys/uart/Uart.scala</title>
<ellipse fill="none" stroke="black" cx="1002.32" cy="-396" rx="168.17" ry="18"/>
<text text-anchor="middle" x="1002.32" y="-392.3" font-family="Times,serif" font-size="14.00">src/main/scala/sys/uart/Uart.scala</text>
</g>
<!-- src/main/scala/sys/uart/Uart.scala&#45;&gt;generated/Soc.fir -->
<g id="edge30" class="edge">
<title>src/main/scala/sys/uart/Uart.scala&#45;&gt;generated/Soc.fir</title>
<path fill="none" stroke="black" d="M1160.22,-402.42C1173.17,-407.44 1185.35,-414.15 1196,-423 1313.97,-521.02 1329.92,-725.01 1331.7,-799.76"/>
<polygon fill="black" stroke="black" points="1328.2,-799.89 1331.87,-809.83 1335.2,-799.77 1328.2,-799.89"/>
</g>
<!-- src/main/scala/sys/uart/UartBlock.scala -->
<g id="node32" class="node">
<title>src/main/scala/sys/uart/UartBlock.scala</title>
<ellipse fill="none" stroke="black" cx="1002.32" cy="-342" rx="193.87" ry="18"/>
<text text-anchor="middle" x="1002.32" y="-338.3" font-family="Times,serif" font-size="14.00">src/main/scala/sys/uart/UartBlock.scala</text>
</g>
<!-- src/main/scala/sys/uart/UartBlock.scala&#45;&gt;generated/Soc.fir -->
<g id="edge31" class="edge">
<title>src/main/scala/sys/uart/UartBlock.scala&#45;&gt;generated/Soc.fir</title>
<path fill="none" stroke="black" d="M1168.46,-351.42C1178.38,-356.05 1187.69,-361.83 1196,-369 1263.38,-427.06 1312.98,-708.92 1327.43,-799.74"/>
<polygon fill="black" stroke="black" points="1324.01,-800.5 1329.02,-809.84 1330.92,-799.42 1324.01,-800.5"/>
</g>
<!-- serve -->
<g id="node33" class="node">
<title>serve</title>
<ellipse fill="none" stroke="black" cx="1002.32" cy="-288" rx="36.29" ry="18"/>
<text text-anchor="middle" x="1002.32" y="-284.3" font-family="Times,serif" font-size="14.00">serve</text>
</g>
<!-- serve&#45;&gt;generated/Soc.fir -->
<g id="edge32" class="edge">
<title>serve&#45;&gt;generated/Soc.fir</title>
<path fill="none" stroke="black" d="M1037.16,-282.44C1079.66,-277.52 1152.29,-276.22 1196,-315 1270.65,-381.22 1316.16,-702.71 1328.4,-800.03"/>
<polygon fill="black" stroke="black" points="1324.93,-800.51 1329.63,-810 1331.88,-799.65 1324.93,-800.51"/>
</g>
<!-- gen -->
<g id="node34" class="node">
<title>gen</title>
<ellipse fill="none" stroke="black" cx="1002.32" cy="-234" rx="27.9" ry="18"/>
<text text-anchor="middle" x="1002.32" y="-230.3" font-family="Times,serif" font-size="14.00">gen</text>
</g>
<!-- gen&#45;&gt;generated/Soc.fir -->
<g id="edge33" class="edge">
<title>gen&#45;&gt;generated/Soc.fir</title>
<path fill="none" stroke="black" d="M1029.56,-229.29C1070.59,-223.54 1150,-219.21 1196,-261 1277.86,-335.37 1318.87,-695.89 1329.13,-799.88"/>
<polygon fill="black" stroke="black" points="1325.66,-800.31 1330.1,-809.93 1332.62,-799.64 1325.66,-800.31"/>
</g>
<!-- generated/rtor.mem -->
<g id="node35" class="node">
<title>generated/rtor.mem</title>
<ellipse fill="none" stroke="black" cx="1573.48" cy="-552" rx="103.98" ry="18"/>
<text text-anchor="middle" x="1573.48" y="-548.3" font-family="Times,serif" font-size="14.00">generated/rtor.mem</text>
</g>
<!-- generated/rtor.mem&#45;&gt;Soc.json -->
<g id="edge34" class="edge">
<title>generated/rtor.mem&#45;&gt;Soc.json</title>
<path fill="none" stroke="black" d="M1594.94,-569.97C1641.68,-611 1756.24,-711.59 1808.52,-757.48"/>
<polygon fill="black" stroke="black" points="1806.53,-760.39 1816.35,-764.36 1811.15,-755.13 1806.53,-760.39"/>
</g>
<!-- sw/blink/blink.mem -->
<g id="node36" class="node">
<title>sw/blink/blink.mem</title>
<ellipse fill="none" stroke="black" cx="1332.74" cy="-255" rx="100.98" ry="18"/>
<text text-anchor="middle" x="1332.74" y="-251.3" font-family="Times,serif" font-size="14.00">sw/blink/blink.mem</text>
</g>
<!-- sw/blink/blink.mem&#45;&gt;generated/rtor.mem -->
<g id="edge35" class="edge">
<title>sw/blink/blink.mem&#45;&gt;generated/rtor.mem</title>
<path fill="none" stroke="black" d="M1348.32,-273.13C1389.04,-323.79 1504.12,-466.96 1551.6,-526.02"/>
<polygon fill="black" stroke="black" points="1549.1,-528.5 1558.09,-534.11 1554.56,-524.12 1549.1,-528.5"/>
</g>
<!-- sw/blink/blink.bin -->
<g id="node37" class="node">
<title>sw/blink/blink.bin</title>
<ellipse fill="none" stroke="black" cx="1002.32" cy="-180" rx="92.88" ry="18"/>
<text text-anchor="middle" x="1002.32" y="-176.3" font-family="Times,serif" font-size="14.00">sw/blink/blink.bin</text>
</g>
<!-- sw/blink/blink.bin&#45;&gt;sw/blink/blink.mem -->
<g id="edge36" class="edge">
<title>sw/blink/blink.bin&#45;&gt;sw/blink/blink.mem</title>
<path fill="none" stroke="black" d="M1086.05,-187.9C1120.36,-192.13 1160.4,-198.3 1196,-207 1225.18,-214.13 1256.87,-225.14 1282.29,-234.82"/>
<polygon fill="black" stroke="black" points="1281.11,-238.11 1291.7,-238.45 1283.63,-231.58 1281.11,-238.11"/>
</g>
<!-- sw/blink/blink.elf -->
<g id="node38" class="node">
<title>sw/blink/blink.elf</title>
<ellipse fill="none" stroke="black" cx="682.95" cy="-180" rx="89.88" ry="18"/>
<text text-anchor="middle" x="682.95" y="-176.3" font-family="Times,serif" font-size="14.00">sw/blink/blink.elf</text>
</g>
<!-- sw/blink/blink.elf&#45;&gt;sw/blink/blink.bin -->
<g id="edge37" class="edge">
<title>sw/blink/blink.elf&#45;&gt;sw/blink/blink.bin</title>
<path fill="none" stroke="black" d="M772.77,-180C811.99,-180 858.33,-180 898.99,-180"/>
<polygon fill="black" stroke="black" points="899.2,-183.5 909.2,-180 899.2,-176.5 899.2,-183.5"/>
</g>
<!-- sw/librtor/cstart.o -->
<g id="node39" class="node">
<title>sw/librtor/cstart.o</title>
<ellipse fill="none" stroke="black" cx="426.62" cy="-342" rx="94.78" ry="18"/>
<text text-anchor="middle" x="426.62" y="-338.3" font-family="Times,serif" font-size="14.00">sw/librtor/cstart.o</text>
</g>
<!-- sw/librtor/cstart.o&#45;&gt;sw/blink/blink.elf -->
<g id="edge38" class="edge">
<title>sw/librtor/cstart.o&#45;&gt;sw/blink/blink.elf</title>
<path fill="none" stroke="black" d="M509.25,-333.01C525.83,-329.02 542.65,-323.27 557.25,-315 604.25,-288.39 643.62,-237.94 664.9,-206.81"/>
<polygon fill="black" stroke="black" points="668.01,-208.46 670.66,-198.2 662.19,-204.57 668.01,-208.46"/>
</g>
<!-- sw/librtor/cstart.c -->
<g id="node40" class="node">
<title>sw/librtor/cstart.c</title>
<ellipse fill="none" stroke="black" cx="129.99" cy="-342" rx="94.48" ry="18"/>
<text text-anchor="middle" x="129.99" y="-338.3" font-family="Times,serif" font-size="14.00">sw/librtor/cstart.c</text>
</g>
<!-- sw/librtor/cstart.c&#45;&gt;sw/librtor/cstart.o -->
<g id="edge39" class="edge">
<title>sw/librtor/cstart.c&#45;&gt;sw/librtor/cstart.o</title>
<path fill="none" stroke="black" d="M224.62,-342C255.4,-342 289.82,-342 321.35,-342"/>
<polygon fill="black" stroke="black" points="321.47,-345.5 331.47,-342 321.47,-338.5 321.47,-345.5"/>
</g>
<!-- sw/librtor/exception.o -->
<g id="node41" class="node">
<title>sw/librtor/exception.o</title>
<ellipse fill="none" stroke="black" cx="426.62" cy="-288" rx="112.38" ry="18"/>
<text text-anchor="middle" x="426.62" y="-284.3" font-family="Times,serif" font-size="14.00">sw/librtor/exception.o</text>
</g>
<!-- sw/librtor/exception.o&#45;&gt;sw/blink/blink.elf -->
<g id="edge40" class="edge">
<title>sw/librtor/exception.o&#45;&gt;sw/blink/blink.elf</title>
<path fill="none" stroke="black" d="M509.57,-275.74C525.7,-271.99 542.27,-267.17 557.25,-261 592.27,-246.58 628.1,-222.08 652.32,-203.8"/>
<polygon fill="black" stroke="black" points="654.57,-206.48 660.38,-197.62 650.31,-200.93 654.57,-206.48"/>
</g>
<!-- sw/librtor/exception.c -->
<g id="node42" class="node">
<title>sw/librtor/exception.c</title>
<ellipse fill="none" stroke="black" cx="129.99" cy="-288" rx="111.58" ry="18"/>
<text text-anchor="middle" x="129.99" y="-284.3" font-family="Times,serif" font-size="14.00">sw/librtor/exception.c</text>
</g>
<!-- sw/librtor/exception.c&#45;&gt;sw/librtor/exception.o -->
<g id="edge41" class="edge">
<title>sw/librtor/exception.c&#45;&gt;sw/librtor/exception.o</title>
<path fill="none" stroke="black" d="M241.95,-288C262.05,-288 283.11,-288 303.5,-288"/>
<polygon fill="black" stroke="black" points="303.77,-291.5 313.77,-288 303.77,-284.5 303.77,-291.5"/>
</g>
<!-- sw/librtor/libc/libc.o -->
<g id="node43" class="node">
<title>sw/librtor/libc/libc.o</title>
<ellipse fill="none" stroke="black" cx="426.62" cy="-234" rx="103.18" ry="18"/>
<text text-anchor="middle" x="426.62" y="-230.3" font-family="Times,serif" font-size="14.00">sw/librtor/libc/libc.o</text>
</g>
<!-- sw/librtor/libc/libc.o&#45;&gt;sw/blink/blink.elf -->
<g id="edge42" class="edge">
<title>sw/librtor/libc/libc.o&#45;&gt;sw/blink/blink.elf</title>
<path fill="none" stroke="black" d="M493.92,-220.3C514.25,-216.07 536.68,-211.37 557.25,-207 574.73,-203.29 593.58,-199.23 611.19,-195.42"/>
<polygon fill="black" stroke="black" points="612.37,-198.75 621.4,-193.21 610.88,-191.91 612.37,-198.75"/>
</g>
<!-- sw/librtor/libc/libc.c -->
<g id="node44" class="node">
<title>sw/librtor/libc/libc.c</title>
<ellipse fill="none" stroke="black" cx="129.99" cy="-234" rx="102.88" ry="18"/>
<text text-anchor="middle" x="129.99" y="-230.3" font-family="Times,serif" font-size="14.00">sw/librtor/libc/libc.c</text>
</g>
<!-- sw/librtor/libc/libc.c&#45;&gt;sw/librtor/libc/libc.o -->
<g id="edge43" class="edge">
<title>sw/librtor/libc/libc.c&#45;&gt;sw/librtor/libc/libc.o</title>
<path fill="none" stroke="black" d="M232.79,-234C258.68,-234 286.64,-234 313.03,-234"/>
<polygon fill="black" stroke="black" points="313.06,-237.5 323.06,-234 313.06,-230.5 313.06,-237.5"/>
</g>
<!-- sw/librtor/libc/tinyprintf.o -->
<g id="node45" class="node">
<title>sw/librtor/libc/tinyprintf.o</title>
<ellipse fill="none" stroke="black" cx="426.62" cy="-180" rx="130.78" ry="18"/>
<text text-anchor="middle" x="426.62" y="-176.3" font-family="Times,serif" font-size="14.00">sw/librtor/libc/tinyprintf.o</text>
</g>
<!-- sw/librtor/libc/tinyprintf.o&#45;&gt;sw/blink/blink.elf -->
<g id="edge44" class="edge">
<title>sw/librtor/libc/tinyprintf.o&#45;&gt;sw/blink/blink.elf</title>
<path fill="none" stroke="black" d="M557.39,-180C566.01,-180 574.61,-180 583.04,-180"/>
<polygon fill="black" stroke="black" points="583.22,-183.5 593.22,-180 583.22,-176.5 583.22,-183.5"/>
</g>
<!-- sw/librtor/libc/tinyprintf.c -->
<g id="node46" class="node">
<title>sw/librtor/libc/tinyprintf.c</title>
<ellipse fill="none" stroke="black" cx="129.99" cy="-180" rx="129.98" ry="18"/>
<text text-anchor="middle" x="129.99" y="-176.3" font-family="Times,serif" font-size="14.00">sw/librtor/libc/tinyprintf.c</text>
</g>
<!-- sw/librtor/libc/tinyprintf.c&#45;&gt;sw/librtor/libc/tinyprintf.o -->
<g id="edge45" class="edge">
<title>sw/librtor/libc/tinyprintf.c&#45;&gt;sw/librtor/libc/tinyprintf.o</title>
<path fill="none" stroke="black" d="M260.22,-180C268.57,-180 277,-180 285.4,-180"/>
<polygon fill="black" stroke="black" points="285.63,-183.5 295.63,-180 285.63,-176.5 285.63,-183.5"/>
</g>
<!-- sw/librtor/uart.o -->
<g id="node47" class="node">
<title>sw/librtor/uart.o</title>
<ellipse fill="none" stroke="black" cx="426.62" cy="-126" rx="87.18" ry="18"/>
<text text-anchor="middle" x="426.62" y="-122.3" font-family="Times,serif" font-size="14.00">sw/librtor/uart.o</text>
</g>
<!-- sw/librtor/uart.o&#45;&gt;sw/blink/blink.elf -->
<g id="edge46" class="edge">
<title>sw/librtor/uart.o&#45;&gt;sw/blink/blink.elf</title>
<path fill="none" stroke="black" d="M488.97,-138.67C510.56,-143.16 534.99,-148.27 557.25,-153 574.73,-156.71 593.58,-160.77 611.19,-164.58"/>
<polygon fill="black" stroke="black" points="610.88,-168.09 621.4,-166.79 612.37,-161.25 610.88,-168.09"/>
</g>
<!-- sw/librtor/uart.c -->
<g id="node48" class="node">
<title>sw/librtor/uart.c</title>
<ellipse fill="none" stroke="black" cx="129.99" cy="-126" rx="86.38" ry="18"/>
<text text-anchor="middle" x="129.99" y="-122.3" font-family="Times,serif" font-size="14.00">sw/librtor/uart.c</text>
</g>
<!-- sw/librtor/uart.c&#45;&gt;sw/librtor/uart.o -->
<g id="edge47" class="edge">
<title>sw/librtor/uart.c&#45;&gt;sw/librtor/uart.o</title>
<path fill="none" stroke="black" d="M216.6,-126C251.86,-126 292.86,-126 329.17,-126"/>
<polygon fill="black" stroke="black" points="329.28,-129.5 339.28,-126 329.28,-122.5 329.28,-129.5"/>
</g>
<!-- sw/blink/blink.o -->
<g id="node49" class="node">
<title>sw/blink/blink.o</title>
<ellipse fill="none" stroke="black" cx="426.62" cy="-72" rx="83.39" ry="18"/>
<text text-anchor="middle" x="426.62" y="-68.3" font-family="Times,serif" font-size="14.00">sw/blink/blink.o</text>
</g>
<!-- sw/blink/blink.o&#45;&gt;sw/blink/blink.elf -->
<g id="edge48" class="edge">
<title>sw/blink/blink.o&#45;&gt;sw/blink/blink.elf</title>
<path fill="none" stroke="black" d="M497.33,-81.6C517.14,-85.63 538.44,-91.25 557.25,-99 592.27,-113.42 628.1,-137.92 652.32,-156.2"/>
<polygon fill="black" stroke="black" points="650.31,-159.07 660.38,-162.38 654.57,-153.52 650.31,-159.07"/>
</g>
<!-- sw/blink/blink.c -->
<g id="node50" class="node">
<title>sw/blink/blink.c</title>
<ellipse fill="none" stroke="black" cx="129.99" cy="-72" rx="83.39" ry="18"/>
<text text-anchor="middle" x="129.99" y="-68.3" font-family="Times,serif" font-size="14.00">sw/blink/blink.c</text>
</g>
<!-- sw/blink/blink.c&#45;&gt;sw/blink/blink.o -->
<g id="edge49" class="edge">
<title>sw/blink/blink.c&#45;&gt;sw/blink/blink.o</title>
<path fill="none" stroke="black" d="M213.45,-72C250.64,-72 294.73,-72 333.05,-72"/>
<polygon fill="black" stroke="black" points="333.17,-75.5 343.17,-72 333.17,-68.5 333.17,-75.5"/>
</g>
<!-- sw/librtor/start.o -->
<g id="node51" class="node">
<title>sw/librtor/start.o</title>
<ellipse fill="none" stroke="black" cx="426.62" cy="-18" rx="89.88" ry="18"/>
<text text-anchor="middle" x="426.62" y="-14.3" font-family="Times,serif" font-size="14.00">sw/librtor/start.o</text>
</g>
<!-- sw/librtor/start.o&#45;&gt;sw/blink/blink.elf -->
<g id="edge50" class="edge">
<title>sw/librtor/start.o&#45;&gt;sw/blink/blink.elf</title>
<path fill="none" stroke="black" d="M506.53,-26.35C523.98,-30.36 541.85,-36.28 557.25,-45 604.25,-71.61 643.62,-122.06 664.9,-153.19"/>
<polygon fill="black" stroke="black" points="662.19,-155.43 670.66,-161.8 668.01,-151.54 662.19,-155.43"/>
</g>
<!-- sw/librtor/start.s -->
<g id="node52" class="node">
<title>sw/librtor/start.s</title>
<ellipse fill="none" stroke="black" cx="129.99" cy="-18" rx="89.08" ry="18"/>
<text text-anchor="middle" x="129.99" y="-14.3" font-family="Times,serif" font-size="14.00">sw/librtor/start.s</text>
</g>
<!-- sw/librtor/start.s&#45;&gt;sw/librtor/start.o -->
<g id="edge51" class="edge">
<title>sw/librtor/start.s&#45;&gt;sw/librtor/start.o</title>
<path fill="none" stroke="black" d="M219.39,-18C253.17,-18 291.91,-18 326.62,-18"/>
<polygon fill="black" stroke="black" points="326.77,-21.5 336.77,-18 326.77,-14.5 326.77,-21.5"/>
</g>
</g>
</svg>
